grf
version=1
nRows=18
nColumns=28
inDegrees=no
endheader
time	ground_force_1_vx	ground_force_1_vy	ground_force_1_vz	ground_force_1_px	ground_force_1_py	ground_force_1_pz	ground_moment_1_mx	ground_moment_1_my	ground_moment_1_mz	ground_force_2_vx	ground_force_2_vy	ground_force_2_vz	ground_force_2_px	ground_force_2_py	ground_force_2_pz	ground_moment_2_mx	ground_moment_2_my	ground_moment_2_mz	ground_force_3_vx	ground_force_3_vy	ground_force_3_vz	ground_force_3_px	ground_force_3_py	ground_force_3_pz	ground_moment_3_mx	ground_moment_3_my	ground_moment_3_mz
      0.45000000	      0.36399065	      0.36328208	      2.13522584	    405.38899614	  -1307.70041535	      2.06798295	      0.08338906	      0.30153591	    165.22544338	     16.66943447	     30.85346465	   -730.87716436	    468.56957325	  -1689.54966080	      0.19841500	      0.20077695	      2.59663583	  -3111.47969793	      1.66051700	     -0.77294961	      5.10499216	    438.63166313	   -316.96079453	      0.44548168	     -0.08170870	      0.60022611	    292.27418875
      0.46000000	      0.72840810	      0.08259046	      2.37142542	    414.91489420	  -1364.90833993	      2.16757952	      0.01966341	      0.07110315	     38.96069990	     17.56392187	     40.00901899	   -776.96139520	    468.98250287	  -1687.70447589	      0.19998152	      0.23380793	      3.02382345	  -3623.36726961	      1.66084297	     -0.81384652	      4.47454655	    424.75245875	   -297.95213912	      0.40256464	     -0.06017330	      0.44202868	    215.24150916
      0.47000000	      0.56629053	      0.08016819	      1.42244545	    394.93112535	  -1428.81438644	      2.29429364	      0.01048320	      0.03790738	     20.77120288	     17.98028341	     51.38705844	   -826.81341157	    469.55936133	  -1685.06661557	      0.20222012	      0.28148972	      3.64048908	  -4362.30130288	      1.62125176	     -0.81295092	      5.02296610	    466.40204806	   -330.53908228	      0.48113014	     -0.07265236	      0.53369895	    259.87944436
      0.48000000	      0.72786770	      0.20193364	      1.81642185	    429.53868272	  -1443.84825215	      2.30426401	     -0.00117405	     -0.00424536	     -2.32623033	     19.24689671	     64.68076751	   -879.11377240	    470.09428528	  -1683.29796352	      0.20373064	      0.31873021	      4.12211797	  -4939.42440265	      1.62063765	     -0.69400302	      5.10214280	    471.35521012	   -285.06064674	      0.38911850	     -0.12853403	      0.94420161	    459.76966822
      0.49000000	      0.48532951	      0.20086535	      1.65850144	    434.37546560	  -1447.93075167	      2.30927344	      0.02518302	      0.09106214	     49.89714934	     21.09215580	     79.57721988	   -934.48423050	    470.26222257	  -1681.45780952	      0.20527715	      0.34170909	      4.41930251	  -5295.53273035	      1.66054200	     -0.77340192	      4.94488862	    460.56527041	   -301.33606556	      0.41952590	     -0.13255918	      0.97377003	    474.16771886
      0.50000000	      0.72750933	      0.20003696	      1.10380302	    457.49045693	  -1585.35649739	      2.54840888	     -0.03803605	     -0.13753884	    -75.36387690	     24.33855571	     95.17854161	   -987.57231466	    470.31657724	  -1679.95640264	      0.20653363	      0.34266279	      4.43163660	  -5310.31234775	      1.58054921	     -0.57568964	      4.94486686	    439.11133458	   -292.48888884	      0.39535928	     -0.10198392	      0.74916642	    364.79920445
      0.51000000	      0.76846870	      0.03929462	      1.50036566	    435.98654403	  -1447.58906906	      2.30783676	     -0.02526328	     -0.09135233	    -50.05615775	     29.41057154	    112.42143936	  -1039.17144415	    470.28740568	  -1677.90603616	      0.20824285	      0.31779049	      4.10996471	  -4924.86147509	      1.50328496	     -0.85471322	      4.31808136	    476.51407700	   -253.38587981	      0.32551214	     -0.14254185	      1.04710204	    509.87602009
      0.52000000	      0.40451119	      0.20000872	      1.65825596	    459.57946646	  -1428.84961029	      2.26172999	     -0.00596218	     -0.02155933	    -11.81335233	     35.64503994	    131.30261972	  -1086.29656653	    470.26604562	  -1676.43458545	      0.20946945	      0.28652739	      3.70564097	  -4440.37108010	      1.65944965	     -0.53675692	      4.39418589	    455.57782424	   -279.44843837	      0.37318229	     -0.11021043	      0.80959777	    394.22565798
      0.53000000	      0.68775397	      0.12056438	      2.05298821	    465.68905311	  -1422.04935186	      2.24623604	     -0.02217164	     -0.08017294	    -43.93045417	     39.76521250	    151.99418330	  -1122.30144034	    470.34091841	  -1674.63158859	      0.21097894	      0.24545227	      3.17441902	  -3803.82194141	      1.62213998	     -0.97178284	      4.86638615	    489.50356739	   -324.85074640	      0.47590664	     -0.10555849	      0.77542492	    377.58552584
      0.54000000	      0.93005381	      0.12051333	      1.73756559	    417.53271492	  -1443.71376765	      2.31007797	     -0.04817523	     -0.17420225	    -95.45345345	     41.51472968	    170.87680940	  -1150.95334061	    470.65836655	  -1672.62443496	      0.21267446	      0.20885141	      2.70106238	  -3236.61126035	      1.62146362	     -0.85265814	      5.02174897	    488.24472054	   -297.04596275	      0.41845369	     -0.12818347	      0.94162641	    458.51570294
      0.55000000	      0.72807363	     -0.04197623	      1.18420696	    448.99365473	  -1456.29202762	      2.31715496	     -0.02796496	     -0.10112167	    -55.40923077	     40.88771456	    189.42696078	  -1165.15504465	    471.24859701	  -1670.38349219	      0.21458269	      0.16963227	      2.19384367	  -2628.82455274	      1.66088303	     -0.81372999	      4.55116556	    540.00745939	   -281.42670751	      0.40084824	     -0.13305000	      0.97737557	    475.92340103
      0.56000000	      0.68810986	     -0.08102613	      1.89552588	    466.55262480	  -1401.61870402	      2.20851433	     -0.00153582	     -0.00555353	     -3.04303758	     38.42986007	    207.64923321	  -1165.42312302	    471.86506141	  -1668.18681775	      0.21645567	      0.13978602	      1.80784392	  -2166.29131544	      1.54216124	     -0.77344306	      5.18167126	    445.38495170	   -324.14362975	      0.46212060	     -0.11051989	      0.81187106	    395.33261420
      0.57000000	      0.64731065	      0.08012370	      1.81557577	    504.76285994	  -1388.39006905	      2.16508746	      0.03123304	      0.11293907	     61.88453038	     34.99874158	    225.90106052	  -1151.32587506	    472.56710879	  -1666.33413227	      0.21804710	      0.11550096	      1.49376671	  -1789.94094655	      1.46344306	     -0.81427556	      4.78744966	    428.55039583	   -284.81557682	      0.37664862	     -0.07745141	      0.56895239	    277.04575791
      0.58000000	     -4.75847598	     18.97351648	    -58.74178105	    613.64366478	  -1063.91699697	      1.51797313	      0.13957885	      0.50471892	    276.55879419	     27.16194316	    244.39587791	  -1117.16742268	    473.43647054	  -1664.36550684	      0.21974608	      0.10532573	      1.36217115	  -1632.25348121	      1.77755503	     -0.49443251	      5.33219361	    474.20626344	   -278.49251499	      0.37642696	     -0.12637005	      0.92830517	    452.02905451
      0.59000000	     14.42353475	     62.41949304	   -216.87176139	    590.07021668	  -1065.53000681	      1.53281436	      0.58081538	      2.10023592	   1150.81619519	     15.05421804	    257.82338096	  -1063.64251129	    474.58783568	  -1662.54194011	      0.22134221	      0.13581891	      1.75653753	  -2104.81223058	      1.26566340	     -0.65747858	      4.38412082	    485.73452835	   -264.68223836	      0.35128848	     -0.11387570	      0.83652259	    407.33643462
      0.60000000	     55.34147759	     35.32378574	   -366.31821032	    573.48171229	  -1051.48223360	      1.51554941	      0.50213146	      1.81571386	    994.91342910	      1.12243298	    268.44643336	   -981.11779186	    475.93360011	  -1660.97549026	      0.22273630	      0.17861836	      2.31006023	  -2768.08377619	      1.77835803	     -0.57470528	      4.77100824	    541.19586571	   -366.37101336	      0.57562554	     -0.14034940	      1.03099641	    502.03354190
      0.61000000	     68.53549689	    -52.83819729	   -462.82447982	    571.04590694	  -1031.98103275	      1.48118913	     -0.81727521	     -2.95527770	  -1619.33305069	    -12.92750151	    269.79912441	   -860.82304508	    477.08940813	  -1659.60485363	      0.22395473	      0.20884993	      2.70104320	  -3236.58827575	      1.74023138	     -0.81288068	      4.60863265	    508.93828522	   -265.46900636	      0.35939110	     -0.18328784	      1.34641909	    655.62550714
      0.62000000	     74.33172892	   -107.47837661	   -581.10361965	    573.51071897	  -1016.71610616	      1.45208670	     -2.17606359	     -7.86867406	  -4311.60969602	    -22.05557602	    250.91779345	   -701.38142100	    477.98847363	  -1656.44397434	      0.22665060	      0.21013006	      2.71759902	  -3256.42667828	      1.93717991	     -0.73209153	      4.83845600	    498.70847088	   -314.78342910	      0.45780533	     -0.18246655	      1.34038592	    652.68771808
